<svg xmlns="http://www.w3.org/2000/svg" xmlns:xlink="http://www.w3.org/1999/xlink" version="1.1" x="0px" y="0px" viewBox="0 0 100 125" style="enable-background:new 0 0 100 100;" xml:space="preserve"><g><path d="M50,6.5C26.6,6.5,7.5,25.7,7.5,49.2c0,5.3,1,10.5,2.9,15.5c1.4,3.7,3.3,7.3,5.9,10.5l-5.7,13.6c-0.5,1.2-0.3,2.5,0.5,3.4   c0.6,0.8,1.6,1.2,2.6,1.2H14l22-3.9C40.5,91.2,45.1,92,50,92c23.4,0,42.5-19.2,42.5-42.7S73.4,6.5,50,6.5z M23.1,76.1   c0.5-1.2,0.3-2.5-0.5-3.4c-2.5-2.9-4.5-6.3-6.1-10.2c-1.6-4.2-2.4-8.7-2.4-13.2c-0.1-9.6,3.6-18.7,10.4-25.5   c6.8-6.9,15.8-10.7,25.5-10.7c19.8,0,36,16.2,36,36.2s-16.1,36.2-36,36.2c-4.3,0-8.5-0.8-12.5-2.2c-0.4-0.1-1.1-0.3-1.7-0.1   l-16.8,2.9L23.1,76.1z"/><ellipse transform="matrix(1.879755e-03 -1 1 1.879755e-03 -13.2299 86.6952)" cx="36.8" cy="50" rx="5" ry="5"/><ellipse transform="matrix(1.879755e-03 -1 1 1.879755e-03 -0.2021 99.7967)" cx="49.9" cy="50" rx="5" ry="5"/><ellipse transform="matrix(1.879755e-03 -1 1 1.879755e-03 12.8256 112.8981)" cx="63" cy="50" rx="5" ry="5"/></g><text x="0" y="115" fill="#000000" font-size="5px" font-weight="bold" font-family="'Helvetica Neue', Helvetica, Arial-Unicode, Arial, Sans-serif">Created by Jony</text><text x="0" y="120" fill="#000000" font-size="5px" font-weight="bold" font-family="'Helvetica Neue', Helvetica, Arial-Unicode, Arial, Sans-serif">from the Noun Project</text></svg>